<?xml version="1.0" encoding="utf-8"?>
<!-- Generator: Adobe Illustrator 27.5.0, SVG Export Plug-In . SVG Version: 6.00 Build 0)  -->
<svg version="1.1" xmlns="http://www.w3.org/2000/svg" xmlns:xlink="http://www.w3.org/1999/xlink" x="0px" y="0px"
	 viewBox="0 0 520 500" style="enable-background:new 0 0 520 500;" xml:space="preserve">
<g id="BACKGROUND">
	<g>
		<polygon style="fill:#E9F3FF;" points="0,0 0,236.456 355.995,30.922 355.995,0 		"/>
		<g>
			<rect style="fill:#D4E6FF;" width="520" height="500"/>
			<rect style="fill:#D4E6FF;" width="520" height="500"/>
			<polygon style="fill:#9DBEED;" points="0,0 0,158.898 275.22,0 			"/>
			<polygon style="fill:#E6F1FF;" points="245.269,0 0,141.606 0,158.898 275.22,0 			"/>
			<polygon style="fill:#B7CEEA;" points="355.995,30.922 520,171.903 520,0 355.995,0 			"/>
			<polygon style="fill:#9DBEED;" points="520,102.5 355.995,7.811 0,213.345 0,500 520,500 			"/>
			<polygon style="fill:#7DA7D8;" points="520,102.5 355.995,7.811 355.995,500 520,500 			"/>
			<polygon style="fill:#B4CEFC;" points="520,125.611 355.995,30.922 0,236.456 0,500 520,500 			"/>
			<polygon style="fill:#9DBEED;" points="69.479,375.888 123.484,407.068 57.697,445.634 150.938,500 520,500 520,242.674 
				410.106,179.227 			"/>
		</g>
	</g>
</g>
<g id="OBJECTS">
	<g>
		<g>
			<linearGradient id="SVGID_1_" gradientUnits="userSpaceOnUse" x1="416.5047" y1="263.3487" x2="376.1547" y2="193.7319">
				<stop  offset="0" style="stop-color:#3E4261;stop-opacity:0.6"/>
				<stop  offset="0.2915" style="stop-color:#707892;stop-opacity:0.4251"/>
				<stop  offset="0.7783" style="stop-color:#BFCEDF;stop-opacity:0.133"/>
				<stop  offset="1" style="stop-color:#DEF0FE;stop-opacity:0"/>
			</linearGradient>
			<path style="opacity:0.5;fill:url(#SVGID_1_);" d="M426.995,252.552l11.703-6.621c5.809-3.363,5.8-11.754-0.017-15.104
				l-49.596-27.975l-37.686,21.302l50.213,28.422C409.469,257.105,419.147,257.096,426.995,252.552z"/>
			<g>
				<g>
					<path style="fill:#002C35;" d="M366.405,226.99c1.755,4.015,6.644,4.634,13.989,1.423c7.344-3.211,12.399-8.03,10.644-12.045
						c-1.755-4.015-8.246-5.335-15.797-0.063C368.669,220.893,364.65,222.975,366.405,226.99z"/>
					<path style="fill:#FFC4AC;" d="M373.095,221.757c0.842,1.927,3.748,1.512,7.273-0.029c3.525-1.541,8.358-5.124,7.515-7.051
						c-0.842-1.927-6.338-3.026-10.278,1.142C374.963,218.615,372.252,219.83,373.095,221.757z"/>
				</g>
				<path style="fill:none;stroke:#6963E6;stroke-width:11;stroke-linecap:round;stroke-miterlimit:10;" d="M407.707,143.42
					c0,0-39.028,13.511-26.08,68.542"/>
			</g>
			<g>
				<g>
					<path style="fill:#002C35;" d="M426.737,243.256c1.755,4.015,6.644,4.634,13.989,1.423c7.344-3.211,12.399-8.03,10.644-12.045
						c-1.755-4.015-8.246-5.336-15.797-0.063C429,237.159,424.981,239.241,426.737,243.256z"/>
					<path style="fill:#FFC4AC;" d="M433.426,238.024c0.842,1.927,3.748,1.512,7.273-0.029c3.525-1.541,8.358-5.124,7.515-7.051
						c-0.842-1.927-6.338-3.026-10.278,1.142C435.294,234.881,432.584,236.097,433.426,238.024z"/>
				</g>
				<path style="fill:none;stroke:#6963E6;stroke-width:11;stroke-linecap:round;stroke-miterlimit:10;" d="M427.547,150.921
					c0,0,2.96,52.948,14.614,78.845"/>
			</g>
			<path style="fill:#3B415E;" d="M395.91,54.704c5.23-3.869,12.952-4.144,18.958-1.644c5.973,2.486,12.39,10.432,13.12,21.173
				c1.351,19.867,45.04,25.633,25.18,47.414c-20.52,22.506-78.941,12.755-64.418-26.868
				C397.665,70.452,383.268,64.055,395.91,54.704z"/>
			<g>
				<path style="fill:none;stroke:#FDC3AC;stroke-width:7;stroke-linecap:round;stroke-miterlimit:10;" d="M393.828,98.834
					c0,0-13.944,27.453-15.623,27.712s-29.596-11.374-29.596-11.374"/>
				<path style="fill:#BA3F1E;" d="M391.249,94.153l-8.548,14.831l9.545,5.078l7.964-14.94c1.347-2.527,0.361-5.668-2.188-6.972l0,0
					C395.591,90.907,392.613,91.788,391.249,94.153z"/>
				<g>
					<path style="fill:#FDC3AC;" d="M340.031,117.466c4.936,3.864,10.252,2.857,11.837-1.522c1.586-4.378-2.314-9.648-6.255-7.135
						C341.674,111.322,340.031,117.466,340.031,117.466z"/>
					<g>
						<path style="fill:#FFBE2E;" d="M343.299,108.301l-3.146,7.356c-0.406,0.951-0.962,1.791-1.629,2.506
							c-0.464,0.499-0.299,1.304,0.327,1.572l4.095,1.751c0.626,0.268,1.323-0.169,1.363-0.849c0.057-0.976,0.28-1.958,0.687-2.909
							l3.145-7.356c0.968-2.263,2.781-3.903,4.913-4.713l2.501-5.111l-10.276-4.394l-1.968,5.339
							C344.199,103.594,344.267,106.038,343.299,108.301z"/>
						<path style="fill:#FF8431;" d="M353.056,105.659l1.257-2.569l-10.431-3.141l-0.569,1.544c0.426,1.008,0.657,2.096,0.681,3.205
							c2.679,1.207,5.253,1.668,7.526,1.726C352.006,106.118,352.521,105.862,353.056,105.659z"/>
						<path style="fill:#FF8431;" d="M346.383,114.486l1.759-4.114c0.012-0.027,0.028-0.051,0.04-0.078l-5.691,1.652
							C343.511,113.527,344.905,114.256,346.383,114.486z"/>
						<g>
							<path style="fill:#FF5065;" d="M364.322,99.349c-3.497,8.178-9.823,7.968-16.514,5.107
								c-6.691-2.861-11.213-7.29-7.716-15.468s9.938-13.266,18.448-9.628C367.265,83.092,367.819,91.171,364.322,99.349z"/>
						</g>
					</g>
					<path style="fill:#FDC3AC;" d="M337.196,115.746c-0.476,1.856,5.493,5.257,7.356-0.637c1.862-5.894,2.425-6.387,1.783-7.374
						c-0.643-0.986-3.088-3.27-5.693-0.433C338.036,110.139,337.196,115.746,337.196,115.746z"/>
					<path style="fill:#FDC3AC;" d="M350.29,113.77c-3.343,0.65-6.238-0.853-6.209-2.56c0,0,4.561-2.648,5.209-2.648
						C349.937,108.561,351.349,113.564,350.29,113.77z"/>
				</g>
			</g>
			<path style="fill:#6963E6;" d="M402.998,131.596c-4.16,7.205-0.155,17.305,8.945,22.559c9.1,5.254,19.849,3.672,24.009-3.533
				c4.16-7.205,0.155-17.305-8.945-22.559C417.907,122.809,407.158,124.391,402.998,131.596z"/>
			<path style="fill:#FE5617;" d="M405.714,84.301l16.025,4.503c2.483,0.959,4.309,3.113,4.849,5.72l7.359,36.372
				c1.594,7.693-5.987,14.084-13.3,11.212l-12.967-4.37c-5.359-2.105-9.052-7.079-9.514-12.818l-0.888-34.321
				C396.91,86.032,401.44,82.65,405.714,84.301z"/>
			<path style="fill:#FE5617;" d="M390.503,95.619c-2.284,8.397,4.256,17.485,14.606,20.3c10.35,2.815,20.591-1.711,22.875-10.107
				c2.284-8.397-4.256-17.486-14.606-20.3C403.028,82.697,392.786,87.222,390.503,95.619z"/>
			<path style="fill:#E3AF9A;" d="M397.999,94.253c-0.212,3.556,4.565,6.734,10.671,7.099c6.106,0.365,11.228-2.222,11.441-5.778
				c0.213-3.556-4.565-6.734-10.671-7.099C403.334,88.11,398.211,90.697,397.999,94.253z"/>
			<g>
				<path style="fill:#E3AF9A;" d="M411.263,97.823L411.263,97.823c3.346-0.516,5.662-3.677,5.146-7.023l-1.55-10.047
					c-0.516-3.347-3.677-5.662-7.023-5.146l0,0c-3.346,0.516-5.662,3.677-5.146,7.023l1.55,10.047
					C404.756,96.023,407.917,98.339,411.263,97.823z"/>
				<g>
					<path style="fill:#FDC3AC;" d="M391.673,72.881c1.341,8.696,9.478,14.658,18.174,13.317
						c8.696-1.341,14.658-9.478,13.317-18.174c-1.341-8.696-9.478-14.658-18.174-13.317
						C396.294,56.048,390.332,64.185,391.673,72.881z"/>
					<path style="fill:#3B415E;" d="M425.569,81.767c0,0-10.996-1.058-13.329-20.345c0,0-14.423,4.704-20.46,0.677
						c0,0,6.791-8.943,17.256-8.354C419.501,54.335,431.446,63.325,425.569,81.767z"/>
					<path style="fill:#FDC3AC;" d="M414.196,73.011c0.377,2.446,2.315,4.177,4.328,3.866c2.013-0.311,3.339-2.545,2.962-4.991
						c-0.377-2.446-2.315-4.177-4.328-3.866C415.145,68.33,413.819,70.565,414.196,73.011z"/>
					<g>
						<g>
							<g>
								<g>
									<path style="fill:#2E3438;" d="M407.379,69.697c0.073,0.929-0.622,1.741-1.551,1.814c-0.929,0.073-1.741-0.621-1.814-1.55
										c-0.073-0.929,0.621-1.741,1.55-1.814C406.494,68.074,407.306,68.768,407.379,69.697z"/>
								</g>
							</g>
							<g>
								<g>
									<path style="fill:#2E3438;" d="M398.38,70.201c0.065,0.83-0.555,1.556-1.386,1.621c-0.831,0.065-1.556-0.555-1.621-1.386
										c-0.065-0.831,0.555-1.556,1.386-1.621C397.589,68.75,398.315,69.371,398.38,70.201z"/>
								</g>
							</g>
							<g>
								<path style="fill:#DB9E89;" d="M398.335,76.115c-0.122,0.01-0.248-0.032-0.344-0.124c-0.756-0.733-1.053-1.463-0.883-2.168
									c0.257-1.063,1.5-1.652,2.073-1.87l0.493-3.451c0.035-0.242,0.26-0.409,0.502-0.376c0.243,0.035,0.412,0.259,0.377,0.502
									l-0.571,3.997l-0.27,0.083c-0.427,0.132-1.573,0.626-1.741,1.326c-0.091,0.379,0.124,0.823,0.638,1.321
									c0.176,0.171,0.18,0.452,0.01,0.628C398.541,76.062,398.439,76.107,398.335,76.115z"/>
							</g>
						</g>
						<g>
							<path style="fill:#2E3438;" d="M408.553,74.889l-9.721,3.591c0,0,2.14,4.478,7.046,2.725
								C410.194,79.663,408.553,74.889,408.553,74.889z"/>
							<path style="fill:#FF839E;" d="M406.473,77.833c0.844-0.564,1.642-0.868,2.383-1c0.02,1.506-0.478,3.479-2.977,4.372
								c-0.503,0.18-0.97,0.28-1.416,0.34C404.423,80.306,404.85,78.918,406.473,77.833z"/>
							<path style="fill:#FFFFFF;" d="M408.553,74.889c-1.52,4.937-6.773,5.408-9.721,3.591L408.553,74.889z"/>
						</g>
					</g>
				</g>
			</g>
			<g>
				<path style="fill:none;stroke:#FDC3AC;stroke-width:7;stroke-linecap:round;stroke-miterlimit:10;" d="M430.507,100.282
					c26.71,19.686,15.303,37.908-7.216,40.575"/>
				<path style="fill:#BA3F1E;" d="M423.017,100.825l12.531,11.662l7.093-8.16L429.872,93.21c-2.16-1.881-5.442-1.626-7.286,0.566
					l0,0C420.829,95.865,421.018,98.965,423.017,100.825z"/>
				<path style="fill:#FDC3AC;" d="M424.253,144.512c-6.919,3.642-13.778,3.702-17.177-1.7c-3.399-5.402,3.217-6.798,8.862-4.856
					c0,0-3.642-2.671,0.668-2.61c4.309,0.061,6.494,3.096,6.494,3.096L424.253,144.512z"/>
			</g>
		</g>
		<g>
			<g>
				<g>
					<g>
						<g>
							<polygon style="fill:#7A9FCC;" points="86.264,369.982 86.264,282.488 145.686,248.002 141.318,245.48 77.528,282.488 
								77.528,375.026 							"/>
						</g>
						<g>
							<polygon style="fill:#638DB7;" points="93.574,374.171 93.574,286.676 152.996,252.19 148.628,249.669 84.839,286.676 
								84.839,379.214 							"/>
						</g>
						<path style="fill:#7A9FCC;" d="M84.839,379.214l-7.31-4.188v-86.429l7.755,4.531
							C85.283,293.128,84.965,379.214,84.839,379.214z"/>
					</g>
					<g>
						<g>
							<polygon style="fill:#7A9FCC;" points="195.538,432.272 195.538,344.778 254.96,310.292 250.592,307.77 186.802,344.778 
								186.802,437.316 							"/>
						</g>
						<g>
							<polygon style="fill:#638DB7;" points="202.848,436.46 202.848,348.966 262.27,314.48 257.902,311.958 194.112,348.966 
								194.112,441.504 							"/>
						</g>
						<path style="fill:#7A9FCC;" d="M194.112,441.504l-7.31-4.188v-86.429l7.755,4.531
							C194.557,355.417,194.239,441.504,194.112,441.504z"/>
					</g>
				</g>
				<g>
					<g>
						<g>
							<polygon style="fill:#7A9FCC;" points="319.369,244.113 319.369,156.619 328.707,151.419 324.339,148.897 310.634,156.619 
								310.634,249.157 							"/>
						</g>
						<g>
							<polygon style="fill:#638DB7;" points="326.68,248.301 326.68,160.807 336.017,155.608 331.649,153.086 317.944,160.807 
								317.944,253.345 							"/>
						</g>
						<path style="fill:#7A9FCC;" d="M317.944,253.345l-7.31-4.188v-86.429l7.755,4.531
							C318.388,167.258,318.07,253.345,317.944,253.345z"/>
					</g>
					<g>
						<g>
							<polygon style="fill:#7A9FCC;" points="428.643,306.403 428.643,218.909 435.62,214.928 431.252,212.406 419.907,218.909 
								419.907,311.447 							"/>
						</g>
						<g>
							<polygon style="fill:#638DB7;" points="435.953,310.591 435.953,223.097 442.93,219.116 438.562,216.594 427.218,223.097 
								427.218,315.635 							"/>
						</g>
						<path style="fill:#7A9FCC;" d="M427.218,315.635l-7.31-4.188v-86.429l7.755,4.531
							C427.662,229.548,427.344,315.635,427.218,315.635z"/>
					</g>
				</g>
				<g>
					<polygon style="fill:#759BC9;" points="364.935,297.939 364.935,300.177 363.546,300.979 363.546,297.134 360.48,295.36 
						354.494,291.895 348.105,295.584 361.676,303.489 368.001,299.713 					"/>
					<polygon style="fill:#759BC9;" points="179.875,191.886 179.875,167.144 176.809,166.899 176.809,192.35 175.42,193.152 
						175.42,167.144 172.355,166.899 172.355,194.922 187.164,203.462 193.553,199.774 					"/>
					<g>
						<polygon style="fill:#217262;" points="452.266,224.406 305.487,139.663 82.167,268.858 51.911,273.533 51.911,286.326 
							216.169,381.161 469.745,234.498 469.745,221.705 						"/>
						<polygon style="fill:#204F4C;" points="469.745,221.705 452.266,224.406 305.487,139.663 199.365,201.015 216.169,381.161 
							469.745,234.498 						"/>
						<polygon style="fill:#2F9968;" points="216.169,368.368 469.745,221.705 305.487,126.87 51.911,273.533 						"/>
						<polygon style="fill:#175E5A;" points="181.99,198.253 346.542,292.918 369.926,279.418 206.386,184.168 						"/>
						<path style="fill:#E9F3FF;" d="M305.487,126.87L51.911,273.533l164.258,94.835l253.576-146.663L305.487,126.87z
							 M62.191,273.533l243.296-140.728l153.978,88.9L216.169,362.432L62.191,273.533z"/>
						<g>
							<polygon style="fill:#B4CEFC;" points="206.386,184.168 181.99,198.253 187.14,201.215 211.504,187.149 							"/>
							<polygon style="fill:#B4CEFC;" points="364.808,276.437 341.393,289.956 346.542,292.918 369.926,279.418 							"/>
						</g>
						<g>
							<polygon style="fill:#E9F3FF;" points="134.671,317.938 384.988,172.852 380.841,170.457 130.223,315.368 							"/>
							<polygon style="fill:#B4CEFC;" points="262.184,244.003 286.568,229.895 282.306,227.431 257.905,241.541 							"/>
						</g>
					</g>
					<g>
						<polygon style="fill:none;stroke:#E9F3FF;stroke-width:2;stroke-miterlimit:10;" points="176.411,167.459 176.411,193.213 
							360.319,299.392 360.319,273.638 						"/>
						<g>
							
								<line style="fill:none;stroke:#E9F3FF;stroke-width:0.5;stroke-miterlimit:10;" x1="176.458" y1="169.924" x2="359.634" y2="276.38"/>
							
								<line style="fill:none;stroke:#E9F3FF;stroke-width:0.5;stroke-miterlimit:10;" x1="176.458" y1="172.36" x2="359.634" y2="278.816"/>
							
								<line style="fill:none;stroke:#E9F3FF;stroke-width:0.5;stroke-miterlimit:10;" x1="176.458" y1="174.797" x2="359.634" y2="281.253"/>
							
								<line style="fill:none;stroke:#E9F3FF;stroke-width:0.5;stroke-miterlimit:10;" x1="176.458" y1="177.234" x2="359.634" y2="283.69"/>
							
								<line style="fill:none;stroke:#E9F3FF;stroke-width:0.5;stroke-miterlimit:10;" x1="176.458" y1="179.671" x2="359.634" y2="286.127"/>
							
								<line style="fill:none;stroke:#E9F3FF;stroke-width:0.5;stroke-miterlimit:10;" x1="176.458" y1="182.107" x2="359.634" y2="288.564"/>
							
								<line style="fill:none;stroke:#E9F3FF;stroke-width:0.5;stroke-miterlimit:10;" x1="176.458" y1="184.544" x2="359.634" y2="291"/>
							
								<line style="fill:none;stroke:#E9F3FF;stroke-width:0.5;stroke-miterlimit:10;" x1="176.458" y1="186.981" x2="359.634" y2="293.437"/>
							
								<line style="fill:none;stroke:#E9F3FF;stroke-width:0.5;stroke-miterlimit:10;" x1="176.458" y1="189.418" x2="359.634" y2="295.874"/>
							
								<line style="fill:none;stroke:#E9F3FF;stroke-width:0.5;stroke-miterlimit:10;" x1="176.458" y1="191.854" x2="359.634" y2="298.311"/>
						</g>
						
							<line style="fill:none;stroke:#E9F3FF;stroke-width:0.5;stroke-miterlimit:10;" x1="178.742" y1="168.819" x2="178.742" y2="194.537"/>
						
							<line style="fill:none;stroke:#E9F3FF;stroke-width:0.5;stroke-miterlimit:10;" x1="181.112" y1="170.19" x2="181.112" y2="195.907"/>
						
							<line style="fill:none;stroke:#E9F3FF;stroke-width:0.5;stroke-miterlimit:10;" x1="183.482" y1="171.561" x2="183.482" y2="197.278"/>
						
							<line style="fill:none;stroke:#E9F3FF;stroke-width:0.5;stroke-miterlimit:10;" x1="185.852" y1="172.931" x2="185.852" y2="198.649"/>
						
							<line style="fill:none;stroke:#E9F3FF;stroke-width:0.5;stroke-miterlimit:10;" x1="188.223" y1="174.302" x2="188.223" y2="200.019"/>
						
							<line style="fill:none;stroke:#E9F3FF;stroke-width:0.5;stroke-miterlimit:10;" x1="190.593" y1="175.673" x2="190.593" y2="201.39"/>
						
							<line style="fill:none;stroke:#E9F3FF;stroke-width:0.5;stroke-miterlimit:10;" x1="192.963" y1="177.043" x2="192.963" y2="202.761"/>
						
							<line style="fill:none;stroke:#E9F3FF;stroke-width:0.5;stroke-miterlimit:10;" x1="195.333" y1="178.414" x2="195.333" y2="204.131"/>
						
							<line style="fill:none;stroke:#E9F3FF;stroke-width:0.5;stroke-miterlimit:10;" x1="197.703" y1="179.785" x2="197.703" y2="205.502"/>
						
							<line style="fill:none;stroke:#E9F3FF;stroke-width:0.5;stroke-miterlimit:10;" x1="200.073" y1="181.156" x2="200.073" y2="206.873"/>
						
							<line style="fill:none;stroke:#E9F3FF;stroke-width:0.5;stroke-miterlimit:10;" x1="202.443" y1="182.526" x2="202.443" y2="208.243"/>
						
							<line style="fill:none;stroke:#E9F3FF;stroke-width:0.5;stroke-miterlimit:10;" x1="204.814" y1="183.897" x2="204.814" y2="209.614"/>
						
							<line style="fill:none;stroke:#E9F3FF;stroke-width:0.5;stroke-miterlimit:10;" x1="207.184" y1="185.268" x2="207.184" y2="210.985"/>
						
							<line style="fill:none;stroke:#E9F3FF;stroke-width:0.5;stroke-miterlimit:10;" x1="209.554" y1="186.638" x2="209.554" y2="212.355"/>
						
							<line style="fill:none;stroke:#E9F3FF;stroke-width:0.5;stroke-miterlimit:10;" x1="211.924" y1="188.009" x2="211.924" y2="213.726"/>
						
							<line style="fill:none;stroke:#E9F3FF;stroke-width:0.5;stroke-miterlimit:10;" x1="214.294" y1="189.38" x2="214.294" y2="215.097"/>
						
							<line style="fill:none;stroke:#E9F3FF;stroke-width:0.5;stroke-miterlimit:10;" x1="216.664" y1="190.75" x2="216.664" y2="216.467"/>
						
							<line style="fill:none;stroke:#E9F3FF;stroke-width:0.5;stroke-miterlimit:10;" x1="219.034" y1="192.121" x2="219.034" y2="217.838"/>
						
							<line style="fill:none;stroke:#E9F3FF;stroke-width:0.5;stroke-miterlimit:10;" x1="221.404" y1="193.492" x2="221.404" y2="219.209"/>
						
							<line style="fill:none;stroke:#E9F3FF;stroke-width:0.5;stroke-miterlimit:10;" x1="223.775" y1="194.862" x2="223.775" y2="220.58"/>
						
							<line style="fill:none;stroke:#E9F3FF;stroke-width:0.5;stroke-miterlimit:10;" x1="226.145" y1="196.233" x2="226.145" y2="221.95"/>
						
							<line style="fill:none;stroke:#E9F3FF;stroke-width:0.5;stroke-miterlimit:10;" x1="228.515" y1="197.604" x2="228.515" y2="223.321"/>
						
							<line style="fill:none;stroke:#E9F3FF;stroke-width:0.5;stroke-miterlimit:10;" x1="230.885" y1="198.974" x2="230.885" y2="224.692"/>
						
							<line style="fill:none;stroke:#E9F3FF;stroke-width:0.5;stroke-miterlimit:10;" x1="233.255" y1="200.345" x2="233.255" y2="226.062"/>
						
							<line style="fill:none;stroke:#E9F3FF;stroke-width:0.5;stroke-miterlimit:10;" x1="235.625" y1="201.716" x2="235.625" y2="227.433"/>
						
							<line style="fill:none;stroke:#E9F3FF;stroke-width:0.5;stroke-miterlimit:10;" x1="237.995" y1="203.086" x2="237.995" y2="228.804"/>
						
							<line style="fill:none;stroke:#E9F3FF;stroke-width:0.5;stroke-miterlimit:10;" x1="240.366" y1="204.457" x2="240.366" y2="230.174"/>
						
							<line style="fill:none;stroke:#E9F3FF;stroke-width:0.5;stroke-miterlimit:10;" x1="242.736" y1="205.828" x2="242.736" y2="231.545"/>
						
							<line style="fill:none;stroke:#E9F3FF;stroke-width:0.5;stroke-miterlimit:10;" x1="245.106" y1="207.199" x2="245.106" y2="232.916"/>
						
							<line style="fill:none;stroke:#E9F3FF;stroke-width:0.5;stroke-miterlimit:10;" x1="247.476" y1="208.569" x2="247.476" y2="234.286"/>
						
							<line style="fill:none;stroke:#E9F3FF;stroke-width:0.5;stroke-miterlimit:10;" x1="249.846" y1="209.94" x2="249.846" y2="235.657"/>
						
							<line style="fill:none;stroke:#E9F3FF;stroke-width:0.5;stroke-miterlimit:10;" x1="252.216" y1="211.311" x2="252.216" y2="237.028"/>
						
							<line style="fill:none;stroke:#E9F3FF;stroke-width:0.5;stroke-miterlimit:10;" x1="254.586" y1="212.681" x2="254.586" y2="238.398"/>
						
							<line style="fill:none;stroke:#E9F3FF;stroke-width:0.5;stroke-miterlimit:10;" x1="256.957" y1="214.052" x2="256.957" y2="239.769"/>
						
							<line style="fill:none;stroke:#E9F3FF;stroke-width:0.5;stroke-miterlimit:10;" x1="259.327" y1="215.423" x2="259.327" y2="241.14"/>
						
							<line style="fill:none;stroke:#E9F3FF;stroke-width:0.5;stroke-miterlimit:10;" x1="261.697" y1="216.793" x2="261.697" y2="242.51"/>
						
							<line style="fill:none;stroke:#E9F3FF;stroke-width:0.5;stroke-miterlimit:10;" x1="264.067" y1="218.164" x2="264.067" y2="243.881"/>
						
							<line style="fill:none;stroke:#E9F3FF;stroke-width:0.5;stroke-miterlimit:10;" x1="266.437" y1="219.535" x2="266.437" y2="245.252"/>
						
							<line style="fill:none;stroke:#E9F3FF;stroke-width:0.5;stroke-miterlimit:10;" x1="268.807" y1="220.905" x2="268.807" y2="246.622"/>
						
							<line style="fill:none;stroke:#E9F3FF;stroke-width:0.5;stroke-miterlimit:10;" x1="271.177" y1="222.276" x2="271.177" y2="247.993"/>
						
							<line style="fill:none;stroke:#E9F3FF;stroke-width:0.5;stroke-miterlimit:10;" x1="273.547" y1="223.647" x2="273.547" y2="249.364"/>
						
							<line style="fill:none;stroke:#E9F3FF;stroke-width:0.5;stroke-miterlimit:10;" x1="275.918" y1="225.017" x2="275.918" y2="250.735"/>
						
							<line style="fill:none;stroke:#E9F3FF;stroke-width:0.5;stroke-miterlimit:10;" x1="278.288" y1="226.388" x2="278.288" y2="252.105"/>
						
							<line style="fill:none;stroke:#E9F3FF;stroke-width:0.5;stroke-miterlimit:10;" x1="280.658" y1="227.759" x2="280.658" y2="253.476"/>
						
							<line style="fill:none;stroke:#E9F3FF;stroke-width:0.5;stroke-miterlimit:10;" x1="283.028" y1="229.129" x2="283.028" y2="254.847"/>
						
							<line style="fill:none;stroke:#E9F3FF;stroke-width:0.5;stroke-miterlimit:10;" x1="285.398" y1="230.5" x2="285.398" y2="256.217"/>
						
							<line style="fill:none;stroke:#E9F3FF;stroke-width:0.5;stroke-miterlimit:10;" x1="287.768" y1="231.871" x2="287.768" y2="257.588"/>
						
							<line style="fill:none;stroke:#E9F3FF;stroke-width:0.5;stroke-miterlimit:10;" x1="290.138" y1="233.241" x2="290.138" y2="258.959"/>
						
							<line style="fill:none;stroke:#E9F3FF;stroke-width:0.5;stroke-miterlimit:10;" x1="292.509" y1="234.612" x2="292.509" y2="260.329"/>
						
							<line style="fill:none;stroke:#E9F3FF;stroke-width:0.5;stroke-miterlimit:10;" x1="294.879" y1="235.983" x2="294.879" y2="261.7"/>
						
							<line style="fill:none;stroke:#E9F3FF;stroke-width:0.5;stroke-miterlimit:10;" x1="297.249" y1="237.354" x2="297.249" y2="263.071"/>
						
							<line style="fill:none;stroke:#E9F3FF;stroke-width:0.5;stroke-miterlimit:10;" x1="299.619" y1="238.724" x2="299.619" y2="264.441"/>
						
							<line style="fill:none;stroke:#E9F3FF;stroke-width:0.5;stroke-miterlimit:10;" x1="301.989" y1="240.095" x2="301.989" y2="265.812"/>
						
							<line style="fill:none;stroke:#E9F3FF;stroke-width:0.5;stroke-miterlimit:10;" x1="304.359" y1="241.465" x2="304.359" y2="267.183"/>
						
							<line style="fill:none;stroke:#E9F3FF;stroke-width:0.5;stroke-miterlimit:10;" x1="306.729" y1="242.836" x2="306.729" y2="268.553"/>
						
							<line style="fill:none;stroke:#E9F3FF;stroke-width:0.5;stroke-miterlimit:10;" x1="309.099" y1="244.207" x2="309.099" y2="269.924"/>
						
							<line style="fill:none;stroke:#E9F3FF;stroke-width:0.5;stroke-miterlimit:10;" x1="311.47" y1="245.577" x2="311.47" y2="271.295"/>
						
							<line style="fill:none;stroke:#E9F3FF;stroke-width:0.5;stroke-miterlimit:10;" x1="313.84" y1="246.948" x2="313.84" y2="272.665"/>
						
							<line style="fill:none;stroke:#E9F3FF;stroke-width:0.5;stroke-miterlimit:10;" x1="316.21" y1="248.319" x2="316.21" y2="274.036"/>
						
							<line style="fill:none;stroke:#E9F3FF;stroke-width:0.5;stroke-miterlimit:10;" x1="318.58" y1="249.69" x2="318.58" y2="275.407"/>
						
							<line style="fill:none;stroke:#E9F3FF;stroke-width:0.5;stroke-miterlimit:10;" x1="320.95" y1="251.06" x2="320.95" y2="276.778"/>
						
							<line style="fill:none;stroke:#E9F3FF;stroke-width:0.5;stroke-miterlimit:10;" x1="323.32" y1="252.431" x2="323.32" y2="278.148"/>
						
							<line style="fill:none;stroke:#E9F3FF;stroke-width:0.5;stroke-miterlimit:10;" x1="325.69" y1="253.802" x2="325.69" y2="279.519"/>
						
							<line style="fill:none;stroke:#E9F3FF;stroke-width:0.5;stroke-miterlimit:10;" x1="328.061" y1="255.172" x2="328.061" y2="280.89"/>
						
							<line style="fill:none;stroke:#E9F3FF;stroke-width:0.5;stroke-miterlimit:10;" x1="330.431" y1="256.543" x2="330.431" y2="282.26"/>
						
							<line style="fill:none;stroke:#E9F3FF;stroke-width:0.5;stroke-miterlimit:10;" x1="332.801" y1="257.914" x2="332.801" y2="283.631"/>
						
							<line style="fill:none;stroke:#E9F3FF;stroke-width:0.5;stroke-miterlimit:10;" x1="335.171" y1="259.284" x2="335.171" y2="285.002"/>
						
							<line style="fill:none;stroke:#E9F3FF;stroke-width:0.5;stroke-miterlimit:10;" x1="337.541" y1="260.655" x2="337.541" y2="286.372"/>
						
							<line style="fill:none;stroke:#E9F3FF;stroke-width:0.5;stroke-miterlimit:10;" x1="339.911" y1="262.026" x2="339.911" y2="287.743"/>
						
							<line style="fill:none;stroke:#E9F3FF;stroke-width:0.5;stroke-miterlimit:10;" x1="342.281" y1="263.396" x2="342.281" y2="289.114"/>
						
							<line style="fill:none;stroke:#E9F3FF;stroke-width:0.5;stroke-miterlimit:10;" x1="344.651" y1="264.767" x2="344.651" y2="290.484"/>
						
							<line style="fill:none;stroke:#E9F3FF;stroke-width:0.5;stroke-miterlimit:10;" x1="347.022" y1="266.138" x2="347.022" y2="291.855"/>
						
							<line style="fill:none;stroke:#E9F3FF;stroke-width:0.5;stroke-miterlimit:10;" x1="349.392" y1="267.508" x2="349.392" y2="293.226"/>
						
							<line style="fill:none;stroke:#E9F3FF;stroke-width:0.5;stroke-miterlimit:10;" x1="351.762" y1="268.879" x2="351.762" y2="294.596"/>
						
							<line style="fill:none;stroke:#E9F3FF;stroke-width:0.5;stroke-miterlimit:10;" x1="354.132" y1="270.25" x2="354.132" y2="295.967"/>
						
							<line style="fill:none;stroke:#E9F3FF;stroke-width:0.5;stroke-miterlimit:10;" x1="356.502" y1="271.62" x2="356.502" y2="297.338"/>
						
							<line style="fill:none;stroke:#E9F3FF;stroke-width:0.5;stroke-miterlimit:10;" x1="358.872" y1="272.991" x2="358.872" y2="298.708"/>
					</g>
					<polygon style="fill:#759BC9;" points="368.041,275.058 368.001,275.035 368.001,274.971 367.944,275.002 361.539,271.304 
						355.15,274.993 360.48,278.07 360.491,302.761 368.001,299.713 368.001,275.081 					"/>
				</g>
				<polygon style="fill:#759BC9;" points="178.743,163.211 172.355,166.899 178.856,170.653 185.245,166.964 				"/>
			</g>
			<g>
				<path style="fill:#FFFFFF;" d="M290.609,171.369c0,2.901-2.352,5.252-5.253,5.252c-2.901,0-5.252-2.352-5.252-5.252
					c0-2.901,2.352-5.253,5.252-5.253C288.258,166.117,290.609,168.468,290.609,171.369z"/>
				<path style="fill:#307A55;" d="M307.097,192.19c0.56,1.211-0.971,3.11-3.42,4.242c-2.449,1.132-4.887,1.068-5.447-0.143
					c-0.56-1.211,0.971-3.11,3.42-4.242C304.099,190.915,306.537,190.979,307.097,192.19z"/>
				<path style="fill:#D4E6FF;" d="M280.151,171.832c0.238,2.68,2.464,4.789,5.206,4.789c2.78,0,5.033-2.167,5.217-4.901
					C287.601,172.953,283.171,171.99,280.151,171.832z"/>
			</g>
		</g>
		<g>
			<g>
				<g>
					<path style="fill:none;stroke:#FDC3AC;stroke-width:7;stroke-linecap:round;stroke-miterlimit:10;" d="M91.519,282.848
						c0,0-52.564,3.75-16.82,41.268"/>
				</g>
				<path style="fill:#8DABFF;" d="M80.295,289.409v-11.222h9.974c3.099,0,5.611,2.512,5.611,5.611l0,0
					c0,3.099-2.512,5.611-5.611,5.611H80.295z"/>
				<path style="fill:#FDC3AC;" d="M70.998,323.869c-0.799,3.019,2.486,6.394,5.506,6.216c0,0-2.42,2.065-1.421,3.73
					c0.999,1.665,7.126,0.2,7.593-4.129C83.142,325.356,76.57,315.721,70.998,323.869z"/>
			</g>
			<g>
				<path style="fill:#3B415E;" d="M87.582,332.47c-4.358,7.549-0.162,18.131,9.372,23.636c9.534,5.505,20.796,3.847,25.155-3.701
					c4.358-7.549,0.163-18.131-9.372-23.635C103.203,323.264,91.941,324.921,87.582,332.47z"/>
				<g>
					<path style="fill:#FE5617;" d="M88.482,438.586c-0.928-3.003-4.094-3.276-13.038-2.264
						c-7.615,0.861-12.486,6.602-11.153,10.574c1.333,3.972,6.776,5.72,15.039,1.393C86.119,444.732,89.719,442.588,88.482,438.586z
						"/>
					<path style="fill:#FE5617;" d="M152.038,434.141c-0.928-3.003-4.094-3.276-13.039-2.264
						c-7.615,0.861-12.486,6.602-11.153,10.574c1.333,3.972,6.777,5.72,15.039,1.392
						C149.674,440.288,153.275,438.144,152.038,434.141z"/>
					<path style="fill:none;stroke:#3B415E;stroke-width:11;stroke-linecap:round;stroke-miterlimit:10;" d="M91.955,343.307
						c0,0-2.697,48.537-20.515,98.142"/>
				</g>
				<g>
					<path style="fill:none;stroke:#3B415E;stroke-width:11;stroke-linecap:round;stroke-miterlimit:10;" d="M113.303,352.717
						c0,0,39.658,34.979,21.84,84.584"/>
				</g>
			</g>
			<path style="fill:#5376F4;" d="M99.148,278.723l19.107,9.948c2.418,1.39,3.965,3.912,4.108,6.697l2.288,44.613
				c0.422,8.221-8.449,13.628-15.563,9.486l-16.85-9.811c-5.213-3.036-8.242-8.776-7.804-14.793l4.974-40.966
				C89.755,279.11,94.987,276.331,99.148,278.723z"/>
			<g>
				<path style="fill:none;stroke:#FDC3AC;stroke-width:7;stroke-linecap:round;stroke-miterlimit:10;" d="M119.531,294.699
					c-6.61,21.417,13.723,36.084,56.834,13.862"/>
				<g>
					<g>
						<path style="fill:#FFBE2E;" d="M181.646,306.297l-0.624,7.622c-0.081,0.985,0.014,1.943,0.258,2.846
							c0.17,0.629-0.329,1.236-0.979,1.183l-4.244-0.347c-0.649-0.053-1.043-0.734-0.773-1.326c0.387-0.85,0.637-1.781,0.718-2.766
							l0.624-7.622c0.192-2.345-0.609-4.54-2.05-6.177l0.167-5.437l10.649,0.872l-0.72,5.392
							C182.985,301.916,181.838,303.952,181.646,306.297z"/>
						<path style="fill:#FF8431;" d="M174.577,299.709l0.084-2.733l10.22,2l-0.208,1.559c-0.81,0.663-1.491,1.479-2.006,2.405
							c-2.803-0.175-5.186-0.935-7.132-1.9C175.259,300.566,174.938,300.119,174.577,299.709z"/>
						<path style="fill:#FF8431;" d="M176.277,310.149l0.349-4.263c0.002-0.029-0.001-0.056,0.001-0.084l4.074,3.936
							C179.133,310.621,177.629,310.614,176.277,310.149z"/>
						<g>
							<path style="fill:#FF5065;" d="M167.868,289.346c-0.694,8.475,4.748,11.121,11.682,11.689
								c6.934,0.568,12.733-1.158,13.427-9.633c0.694-8.475-2.48-15.651-11.298-16.373
								C172.637,274.289,168.562,280.871,167.868,289.346z"/>
						</g>
					</g>
					<path style="fill:#FDC3AC;" d="M180.317,315.504c-5.897,1.063-9.942-2.161-9.328-6.57c0.614-4.409,6.263-7.123,8.472-3.24
						C181.67,309.576,180.317,315.504,180.317,315.504z"/>
					<path style="fill:#FDC3AC;" d="M183.482,315.315c-0.426,1.782-6.99,1.992-5.934-3.822c1.056-5.814,0.8-6.482,1.784-7.029
						c0.984-0.547,4.07-1.386,5.006,2.174C185.274,310.2,183.482,315.315,183.482,315.315z"/>
				</g>
				<path style="fill:#8DABFF;" d="M124.143,306.146h-11.222v-9.974c0-3.099,2.512-5.611,5.611-5.611l0,0
					c3.099,0,5.611,2.512,5.611,5.611V306.146z"/>
			</g>
			<g>
				<path style="fill:#DB9E89;" d="M122.877,268.252c1.091-0.278,1.999-1.112,2.244-2.211c0.059-0.264,0.078-0.399-0.016-0.663
					c-0.368-1.03-1.847-1.251-2.455-1.329l-1.293-3.238c-0.091-0.227-0.349-0.337-0.577-0.247c-0.228,0.091-0.339,0.349-0.248,0.577
					l-0.043,0.135l0.802,7.363C121.819,268.517,122.382,268.378,122.877,268.252z"/>
				<path style="fill:#E3AF9A;" d="M105.282,291.292L105.282,291.292c3.548,0,6.451-2.903,6.451-6.451v-6.564
					c0-3.548-2.903-6.45-6.451-6.45l0,0c-3.548,0-6.45,2.902-6.45,6.45v6.564C98.832,288.389,101.735,291.292,105.282,291.292z"/>
				
					<ellipse transform="matrix(0.9928 -0.1201 0.1201 0.9928 -31.2407 14.6242)" style="fill:#FDC3AC;" cx="105.673" cy="266.424" rx="16.692" ry="16.692"/>
				<path style="fill:#FDC3AC;" d="M101.782,277.574c0.191,3.818,4.867,5.928,10.444,4.712c5.577-1.215,9.942-5.296,9.751-9.114
					c-0.191-3.818-4.867-5.928-10.444-4.712C105.956,269.676,101.59,273.756,101.782,277.574z"/>
				<path style="fill:#633D3D;" d="M122.66,258.131c0,0-2.757,5.133-12.453,9.031c0,0,1.996,12.358-5.704,15.971
					c-6.955,3.263-17.709-5.572-16.924-20.831c0.182-3.54,1.843-6.816,4.654-8.975c2.999-2.304,7.587-4.759,13.412-4.606
					c0,0,0.76-5.133,7.51-5.609C119.904,242.636,126.748,249.671,122.66,258.131z"/>
				<path style="fill:#FDC3AC;" d="M106.46,275.419c1.116,2.341,3.581,3.494,5.508,2.576c1.926-0.918,2.583-3.56,1.468-5.901
					c-1.116-2.34-3.582-3.493-5.508-2.576C106.001,270.437,105.344,273.079,106.46,275.419z"/>
				<g>
					<g>
						<g>
							<path style="fill:#2E3438;" d="M117.641,266.738c0.238,0.901,1.161,1.439,2.062,1.201c0.901-0.238,1.439-1.161,1.201-2.062
								c-0.238-0.901-1.161-1.439-2.062-1.202C117.941,264.914,117.403,265.837,117.641,266.738z"/>
						</g>
					</g>
				</g>
			</g>
		</g>
	</g>
</g>
</svg>
