<?xml version="1.0" encoding="utf-8"?>
<!-- Generator: Adobe Illustrator 27.5.0, SVG Export Plug-In . SVG Version: 6.00 Build 0)  -->
<svg version="1.1" xmlns="http://www.w3.org/2000/svg" xmlns:xlink="http://www.w3.org/1999/xlink" x="0px" y="0px"
	 viewBox="0 0 500 500" style="enable-background:new 0 0 500 500;" xml:space="preserve">
<g id="BACKGROUND">
	<rect style="fill:#FFFFFF;" width="500" height="500"/>
	<rect y="393.052" style="fill:#F7F7F7;" width="500" height="106.949"/>
</g>
<g id="OBJECT">
	<path style="opacity:0.1;fill:#898989;" d="M432.278,440.12c0,3.538-24.41,6.406-54.521,6.406c-30.111,0-54.521-2.868-54.521-6.406
		s24.41-6.406,54.521-6.406C407.868,433.713,432.278,436.582,432.278,440.12z"/>
	<ellipse style="opacity:0.1;fill:#898989;" cx="248.34" cy="423.748" rx="138.61" ry="12.717"/>
	<g>
		
			<rect x="62.686" y="74.218" transform="matrix(0.9403 0.3404 -0.3404 0.9403 39.6255 -23.7525)" style="opacity:0.1;" width="49.635" height="53.665"/>
		<g>
			
				<rect x="62.096" y="68.797" transform="matrix(0.9403 0.3404 -0.3404 0.9403 37.7451 -23.8752)" style="fill:#3C75EF;" width="49.635" height="53.666"/>
			<g>
				<path style="fill:#FFFFFF;" d="M82.582,90.896c-0.324,0.826-0.614,1.321-0.868,1.487c-0.255,0.166-0.632,0.158-1.132-0.023
					c-0.389-0.141-0.644-0.349-0.763-0.625c-0.12-0.276-0.108-0.614,0.037-1.014c0.147-0.336,0.253-0.594,0.317-0.771l2.159-5.441
					c0.171-0.403,0.39-0.66,0.657-0.771c0.266-0.111,0.611-0.09,1.033,0.063l14.488,5.245c0.422,0.153,0.7,0.357,0.834,0.613
					c0.134,0.256,0.131,0.592-0.006,1.007l-1.808,5.568c-0.073,0.2-0.136,0.391-0.189,0.573c-0.054,0.182-0.078,0.267-0.074,0.256
					c-0.145,0.4-0.358,0.659-0.64,0.777c-0.282,0.118-0.633,0.101-1.056-0.052c-0.445-0.161-0.709-0.385-0.793-0.674
					c-0.084-0.288,0.014-0.853,0.293-1.695l1.402-4.395l-4.785-1.732l-5.438,15.021l2.568,0.93l0.65,0.235
					c0.467,0.169,0.773,0.383,0.918,0.643c0.145,0.26,0.145,0.59,0,0.99c-0.141,0.389-0.349,0.65-0.623,0.783
					c-0.274,0.133-0.601,0.131-0.979-0.005l-9.353-3.386c-0.378-0.137-0.63-0.344-0.755-0.622c-0.125-0.278-0.118-0.611,0.023-1.001
					c0.149-0.411,0.364-0.666,0.645-0.766c0.281-0.099,0.683-0.055,1.205,0.135l0.55,0.199l2.567,0.929l5.438-15.021l-4.785-1.732
					L82.582,90.896z"/>
			</g>
			<g>
				
					<rect x="93.425" y="56.91" transform="matrix(0.3404 -0.9403 0.9403 0.3404 -11.9542 139.6703)" style="fill:#FFFFFF;" width="0.304" height="42.891"/>
			</g>
			<g>
				
					<rect x="80.567" y="92.426" transform="matrix(0.3404 -0.9403 0.9403 0.3404 -53.829 151.0055)" style="fill:#FFFFFF;" width="0.304" height="42.891"/>
			</g>
			<g>
				
					<rect x="82.427" y="102.016" transform="matrix(0.3404 -0.9403 0.9403 0.3404 -27.5539 165.0568)" style="fill:#FFFFFF;" width="42.891" height="0.304"/>
			</g>
			<g>
				
					<rect x="47.932" y="89.527" transform="matrix(0.3404 -0.9403 0.9403 0.3404 -38.5634 124.3848)" style="fill:#FFFFFF;" width="42.891" height="0.304"/>
			</g>
		</g>
	</g>
	<g>
		
			<rect x="398.055" y="81.115" transform="matrix(0.9085 0.4179 -0.4179 0.9085 82.0485 -165.804)" style="opacity:0.1;" width="43.185" height="46.692"/>
		
			<rect x="397.41" y="76.53" transform="matrix(0.9085 0.4179 -0.4179 0.9085 80.0742 -165.9549)" style="fill:#3C75EF;" width="43.185" height="46.692"/>
		<g>
			<g>
				<path style="fill:#FFFFFF;" d="M427.849,113.185l-24.708-11.365l7.016-15.254l24.708,11.365L427.849,113.185z M403.694,101.616
					l23.95,11.016l6.667-14.496l-23.95-11.016L403.694,101.616z"/>
			</g>
			<g>
				<polygon style="fill:#FFFFFF;" points="418.901,100.098 410.086,86.959 410.433,86.727 419.105,99.654 434.564,97.827 
					434.613,98.241 				"/>
			</g>
			<g>
				
					<rect x="402.885" y="98.805" transform="matrix(0.9253 -0.3794 0.3794 0.9253 -6.9135 162.9402)" style="fill:#FFFFFF;" width="14.258" height="0.417"/>
			</g>
			<g>
				
					<rect x="425.736" y="99.034" transform="matrix(0.9668 -0.2554 0.2554 0.9668 -12.9688 112.2985)" style="fill:#FFFFFF;" width="0.417" height="14.108"/>
			</g>
		</g>
	</g>
	<g>
		
			<rect x="433.396" y="169.856" transform="matrix(0.9085 0.4179 -0.4179 0.9085 115.1683 -168.2277)" style="opacity:0.1;" width="16.69" height="18.046"/>
		
			<rect x="433.147" y="168.084" transform="matrix(0.9085 0.4179 -0.4179 0.9085 114.405 -168.2858)" style="fill:#FFBB22;" width="16.69" height="18.046"/>
	</g>
	<g>
		
			<rect x="91.967" y="355.466" transform="matrix(0.9085 0.4179 -0.4179 0.9085 158.7545 -6.9639)" style="opacity:0.1;" width="6.625" height="7.163"/>
		
			<rect x="91.869" y="354.763" transform="matrix(0.9085 0.4179 -0.4179 0.9085 158.4543 -6.9865)" style="fill:#FFBB22;" width="6.625" height="7.163"/>
	</g>
	<g>
		
			<rect x="83.531" y="209.294" transform="matrix(0.81 -0.5864 0.5864 0.81 -109.3328 93.1512)" style="opacity:0.1;" width="11.129" height="12.033"/>
		
			<rect x="82.42" y="208.859" transform="matrix(0.81 -0.5864 0.5864 0.81 -109.2895 92.4185)" style="fill:#E96464;" width="11.129" height="12.033"/>
	</g>
	<g>
		
			<rect x="173.156" y="64.63" transform="matrix(0.81 -0.5864 0.5864 0.81 -6.927 117.2503)" style="opacity:0.1;" width="8.668" height="9.372"/>
		
			<rect x="172.291" y="64.291" transform="matrix(0.81 -0.5864 0.5864 0.81 -6.8926 116.6785)" style="fill:#3C75EF;" width="8.668" height="9.372"/>
	</g>
	<g>
		
			<rect x="433.014" y="295.422" transform="matrix(0.9237 0.3832 -0.3832 0.9237 149.5592 -145.4018)" style="opacity:0.1;" width="13.465" height="14.558"/>
		
			<rect x="432.759" y="294.001" transform="matrix(0.9237 0.3832 -0.3832 0.9237 148.9953 -145.4126)" style="fill:#3C75EF;" width="13.465" height="14.558"/>
	</g>
	<g>
		
			<rect x="60.32" y="267.959" transform="matrix(0.9461 -0.3239 0.3239 0.9461 -91.3274 44.0347)" style="opacity:0.1;" width="52.649" height="56.924"/>
		<g>
			
				<rect x="54.706" y="264.289" transform="matrix(0.9461 -0.3239 0.3239 0.9461 -90.4417 42.0191)" style="fill:#3C75EF;" width="52.649" height="56.924"/>
			
				<rect x="55.38" y="274.472" transform="matrix(0.9461 -0.3239 0.3239 0.9461 -85.3842 39.7112)" style="fill:#FFFFFF;" width="42.49" height="3.863"/>
			
				<rect x="63.508" y="298.216" transform="matrix(0.9461 -0.3239 0.3239 0.9461 -92.6364 43.6235)" style="fill:#FFFFFF;" width="42.49" height="3.863"/>
			
				<rect x="61.045" y="291.618" transform="matrix(0.9461 -0.3239 0.3239 0.9461 -90.8256 41.306)" style="fill:#FFFFFF;" width="35.303" height="3.863"/>
			
				<rect x="58.548" y="284.816" transform="matrix(0.9461 -0.3239 0.3239 0.9461 -88.9167 39.1715)" style="fill:#FFFFFF;" width="29.38" height="3.863"/>
			
				<rect x="66.518" y="308.101" transform="matrix(0.9461 -0.3239 0.3239 0.9461 -96.0287 43.0081)" style="fill:#FFFFFF;" width="29.38" height="3.863"/>
		</g>
	</g>
	<g>
		<g>
			<path style="fill:#3C75EF;" d="M359.671,427.347H129.222V106.718c0-8.505,6.895-15.4,15.4-15.4h199.648
				c8.505,0,15.4,6.895,15.4,15.4V427.347z"/>
			<path style="fill:#FFFFFF;" d="M359.662,421.241H129.213V100.612c0-8.505,6.895-15.4,15.4-15.4h199.648
				c8.505,0,15.4,6.895,15.4,15.4V421.241z"/>
			<rect x="146.139" y="102.38" style="fill:#DDE5F4;" width="196.597" height="309.357"/>
			<g>
				<rect x="157.777" y="131.621" style="opacity:0.6;fill:#C7D3EB;" width="196.985" height="46.372"/>
				<rect x="164.352" y="120.218" style="fill:#3C75EF;" width="206.435" height="50.044"/>
				<g>
					<g>
						<path style="fill:#FFFFFF;" d="M213.782,157.991H188.28V132.49h25.502V157.991z M190.519,155.752h21.024v-21.023h-21.024
							V155.752z"/>
					</g>
					<path style="fill:#FFFFFF;" d="M344.078,140.291H226.424c-1.536,0-2.781-1.245-2.781-2.781l0,0
						c0-1.536,1.245-2.781,2.781-2.781h117.654c1.536,0,2.781,1.245,2.781,2.781l0,0
						C346.859,139.046,345.614,140.291,344.078,140.291z"/>
					<path style="fill:#FFFFFF;" d="M312.636,148.913h-86.212c-1.536,0-2.781-1.245-2.781-2.781l0,0
						c0-1.536,1.245-2.781,2.781-2.781h86.212c1.536,0,2.781,1.245,2.781,2.781l0,0
						C315.417,147.667,314.172,148.913,312.636,148.913z"/>
					<path style="fill:#FFFFFF;" d="M335.985,157.534H226.424c-1.536,0-2.781-1.245-2.781-2.781l0,0
						c0-1.536,1.245-2.781,2.781-2.781h109.561c1.536,0,2.781,1.245,2.781,2.781l0,0
						C338.766,156.289,337.521,157.534,335.985,157.534z"/>
				</g>
			</g>
			<g>
				<rect x="157.777" y="186.847" style="fill:#3C75EF;" width="171.813" height="41.651"/>
				<g>
					<g>
						<path style="fill:#FFFFFF;" d="M198.917,218.285h-21.225v-21.225h21.225V218.285z M179.556,216.422h17.498v-17.497h-17.498
							V216.422z"/>
					</g>
					<path style="fill:#FFFFFF;" d="M307.36,203.554h-97.921c-1.278,0-2.315-1.036-2.315-2.315l0,0c0-1.278,1.036-2.315,2.315-2.315
						h97.921c1.278,0,2.315,1.036,2.315,2.315l0,0C309.675,202.517,308.639,203.554,307.36,203.554z"/>
					<path style="fill:#FFFFFF;" d="M281.192,210.729h-71.753c-1.278,0-2.315-1.036-2.315-2.315l0,0
						c0-1.278,1.036-2.315,2.315-2.315h71.753c1.278,0,2.315,1.036,2.315,2.315l0,0C283.506,209.693,282.47,210.729,281.192,210.729
						z"/>
					<path style="fill:#FFFFFF;" d="M300.625,217.905h-91.186c-1.278,0-2.315-1.036-2.315-2.315l0,0
						c0-1.278,1.036-2.315,2.315-2.315h91.186c1.278,0,2.315,1.036,2.315,2.315l0,0
						C302.939,216.869,301.903,217.905,300.625,217.905z"/>
				</g>
			</g>
			<g>
				<rect x="157.777" y="243.087" style="fill:#3C75EF;" width="171.813" height="41.651"/>
				<g>
					<g>
						<path style="fill:#FFFFFF;" d="M198.917,274.524h-21.225V253.3h21.225V274.524z M179.556,272.661h17.498v-17.497h-17.498
							V272.661z"/>
					</g>
					<path style="fill:#FFFFFF;" d="M307.36,259.793h-97.921c-1.278,0-2.315-1.036-2.315-2.315l0,0c0-1.278,1.036-2.315,2.315-2.315
						h97.921c1.278,0,2.315,1.036,2.315,2.315l0,0C309.675,258.756,308.639,259.793,307.36,259.793z"/>
					<path style="fill:#FFFFFF;" d="M281.192,266.968h-71.753c-1.278,0-2.315-1.036-2.315-2.315l0,0
						c0-1.278,1.036-2.315,2.315-2.315h71.753c1.278,0,2.315,1.036,2.315,2.315l0,0C283.506,265.932,282.47,266.968,281.192,266.968
						z"/>
					<path style="fill:#FFFFFF;" d="M300.625,274.144h-91.186c-1.278,0-2.315-1.036-2.315-2.315l0,0
						c0-1.278,1.036-2.315,2.315-2.315h91.186c1.278,0,2.315,1.036,2.315,2.315l0,0
						C302.939,273.108,301.903,274.144,300.625,274.144z"/>
				</g>
			</g>
			<g>
				<rect x="157.777" y="299.326" style="fill:#3C75EF;" width="171.813" height="41.651"/>
				<g>
					<g>
						<path style="fill:#FFFFFF;" d="M198.917,330.763h-21.225v-21.225h21.225V330.763z M179.556,328.9h17.498v-17.497h-17.498
							V328.9z"/>
					</g>
					<path style="fill:#FFFFFF;" d="M307.36,316.032h-97.921c-1.278,0-2.315-1.036-2.315-2.315l0,0c0-1.278,1.036-2.315,2.315-2.315
						h97.921c1.278,0,2.315,1.036,2.315,2.315l0,0C309.675,314.996,308.639,316.032,307.36,316.032z"/>
					<path style="fill:#FFFFFF;" d="M281.192,323.207h-71.753c-1.278,0-2.315-1.036-2.315-2.315l0,0
						c0-1.278,1.036-2.315,2.315-2.315h71.753c1.278,0,2.315,1.036,2.315,2.315l0,0C283.506,322.171,282.47,323.207,281.192,323.207
						z"/>
					<path style="fill:#FFFFFF;" d="M300.625,330.383h-91.186c-1.278,0-2.315-1.036-2.315-2.315l0,0
						c0-1.278,1.036-2.315,2.315-2.315h91.186c1.278,0,2.315,1.036,2.315,2.315l0,0
						C302.939,329.347,301.903,330.383,300.625,330.383z"/>
				</g>
			</g>
			<g>
				<rect x="157.777" y="355.565" style="fill:#3C75EF;" width="171.813" height="41.651"/>
				<g>
					<g>
						<path style="fill:#FFFFFF;" d="M198.917,387.003h-21.225v-21.225h21.225V387.003z M179.556,385.139h17.498v-17.497h-17.498
							V385.139z"/>
					</g>
					<path style="fill:#FFFFFF;" d="M307.36,372.271h-97.921c-1.278,0-2.315-1.036-2.315-2.315l0,0c0-1.278,1.036-2.315,2.315-2.315
						h97.921c1.278,0,2.315,1.036,2.315,2.315l0,0C309.675,371.235,308.639,372.271,307.36,372.271z"/>
					<path style="fill:#FFFFFF;" d="M281.192,379.447h-71.753c-1.278,0-2.315-1.036-2.315-2.315l0,0
						c0-1.278,1.036-2.315,2.315-2.315h71.753c1.278,0,2.315,1.036,2.315,2.315l0,0C283.506,378.41,282.47,379.447,281.192,379.447z
						"/>
					<path style="fill:#FFFFFF;" d="M300.625,386.622h-91.186c-1.278,0-2.315-1.036-2.315-2.315l0,0
						c0-1.278,1.036-2.315,2.315-2.315h91.186c1.278,0,2.315,1.036,2.315,2.315l0,0
						C302.939,385.586,301.903,386.622,300.625,386.622z"/>
				</g>
			</g>
		</g>
		<g>
			<path style="fill:#FFBB22;" d="M203.68,145.194l7.763,10.628h-5.391L201,148.891l-5.114,6.932h-5.268l7.732-10.536l-7.732-10.629
				h5.36l5.083,6.932l5.083-6.932h5.299L203.68,145.194z"/>
		</g>
	</g>
	<g>
		<g>
			<polygon style="fill:#FEBA7A;" points="366.77,416.638 366.399,421.464 366.223,423.747 365.118,438.114 358.111,438.086 
				359.234,423.673 359.411,421.464 359.605,418.949 			"/>
			<path style="fill:#E61C5D;" d="M364.537,442.009c0,0-15.732,0.855-23.556-0.673c-5.082-0.991-3.721-2.609-2.141-3.62
				c0.884-0.564,1.892-0.896,2.935-1.04c0.212-0.03,0.419-0.061,0.639-0.098c5.128-0.857,11.623-3.571,13.493-4.099
				c2.104-0.591,3.856,0.228,4.371,1.618c0.511,1.389,2.437,3.127,4.286,0.902c1.853-2.224,1.814,2.042,1.814,2.042
				c0.212,0.65,0.305,1.22,0.312,1.717C366.716,441.271,364.537,442.009,364.537,442.009z"/>
			<path style="fill:#FEFCE1;" d="M364.537,442.009c0,0-15.732,0.855-23.556-0.673c-5.082-0.991-3.721-2.609-2.141-3.62
				c0.884-0.564,1.892-0.896,2.935-1.04c0.212-0.03,0.419-0.061,0.639-0.098c-0.024,0.161-0.057,0.334-0.107,0.512
				c-0.216,0.806-0.657,1.539-0.858,2.345c-0.033,0.117-0.057,0.237-0.029,0.355c0.077,0.322,0.484,0.416,0.816,0.452
				c6.518,0.632,13.11,0.508,19.598-0.376c1.263-0.171,2.532-0.371,3.743-0.762c0.369-0.121,0.734-0.259,1.112-0.345
				C366.716,441.271,364.537,442.009,364.537,442.009z"/>
			<path style="fill:#930077;" d="M369.564,421.462h-12.423v-97.227H379.2C379.63,335.374,369.564,421.462,369.564,421.462z"/>
			<path style="fill:#6B0561;" d="M369.564,421.462h-10.742c14.509-15.016,14.577-76.501,14.19-97.227h6.187
				C379.63,335.374,369.564,421.462,369.564,421.462z"/>
			<path style="opacity:0.1;" d="M366.399,421.464l-0.176,2.283c-1.773,0.009-5.81-0.056-6.988-0.074l0.176-2.209H366.399z"/>
			<rect x="355.362" y="419.034" style="fill:#930077;" width="16.255" height="3.572"/>
		</g>
		<g>
			<polygon style="fill:#FEBA7A;" points="392.537,416.638 392.908,421.464 393.084,423.747 394.189,438.114 401.196,438.086 
				400.073,423.673 399.896,421.464 399.702,418.949 			"/>
			<path style="fill:#E61C5D;" d="M394.77,442.009c0,0,15.732,0.855,23.556-0.673c5.082-0.991,3.721-2.609,2.141-3.62
				c-0.883-0.564-1.892-0.896-2.935-1.04c-0.212-0.03-0.419-0.061-0.639-0.098c-5.128-0.857-11.623-3.571-13.493-4.099
				c-2.104-0.591-3.856,0.228-4.371,1.618c-0.51,1.389-2.437,3.127-4.286,0.902c-1.853-2.224-1.814,2.042-1.814,2.042
				c-0.212,0.65-0.305,1.22-0.312,1.717C392.591,441.271,394.77,442.009,394.77,442.009z"/>
			<path style="fill:#FEFCE1;" d="M394.77,442.009c0,0,15.732,0.855,23.556-0.673c5.082-0.991,3.721-2.609,2.141-3.62
				c-0.883-0.564-1.892-0.896-2.935-1.04c-0.212-0.03-0.419-0.061-0.639-0.098c0.024,0.161,0.057,0.334,0.107,0.512
				c0.216,0.806,0.657,1.539,0.858,2.345c0.033,0.117,0.057,0.237,0.028,0.355c-0.076,0.322-0.484,0.416-0.816,0.452
				c-6.518,0.632-13.11,0.508-19.598-0.376c-1.263-0.171-2.532-0.371-3.743-0.762c-0.369-0.121-0.734-0.259-1.112-0.345
				C392.591,441.271,394.77,442.009,394.77,442.009z"/>
			<path style="fill:#930077;" d="M389.743,421.462h12.423v-97.227h-22.058C379.677,335.374,389.743,421.462,389.743,421.462z"/>
			<path style="fill:#6B0561;" d="M389.743,421.462h10.742c-14.509-15.016-14.577-76.501-14.19-97.227h-6.187
				C379.677,335.374,389.743,421.462,389.743,421.462z"/>
			<path style="opacity:0.1;" d="M392.908,421.464l0.176,2.283c1.773,0.009,5.81-0.056,6.989-0.074l-0.176-2.209H392.908z"/>
			
				<rect x="387.69" y="419.034" transform="matrix(-1 -1.224647e-16 1.224647e-16 -1 791.6349 841.6395)" style="fill:#930077;" width="16.254" height="3.572"/>
		</g>
		<g>
			<path style="fill:#FECA8C;" d="M415.738,331.717c0.802,1.912,0.173,4.091-0.461,6.066c-0.246,0.767-0.503,1.553-1.011,2.178
				c-0.508,0.625-1.332,1.06-2.117,0.878c-0.92-0.214-1.477-1.19-1.595-2.127c-0.118-0.937,0.088-1.881,0.121-2.825
				c0.05-1.45-0.321-2.911-1.057-4.162c-0.676,0.247-1.065,0.966-1.227,1.667c-0.162,0.701-0.159,1.436-0.362,2.127
				c-0.076,0.259-0.199,0.531-0.44,0.652c-0.291,0.147-0.655,0.018-0.898-0.2c-0.799-0.718-0.549-2.008-0.22-3.032
				c0.566-1.764,3.659-13.394,6.194-12.086c1.378,0.711,0.4,3.609,0.378,4.741C412.992,328.274,414.786,329.447,415.738,331.717z"/>
			<g>
				<path style="fill:#FECA8C;" d="M299.309,201.897c-0.127-1.305,0.071-2.675-0.42-3.892c-0.302-0.749-0.842-1.374-1.387-1.969
					c-1.907-2.084-3.997-4-6.237-5.72c-0.423-0.325-0.975-0.657-1.454-0.422c-0.406,0.199-0.538,0.744-0.414,1.178
					c0.124,0.435,0.44,0.785,0.746,1.118c0.457,0.498,0.914,0.995,1.37,1.492c0.405,0.44,0.838,1.042,0.578,1.581
					c-0.159,0.331-0.527,0.496-0.859,0.654c-1.033,0.491-1.983,1.156-2.797,1.96c-0.387,0.383-0.762,0.836-0.81,1.378
					c-0.032,0.361,0.086,0.717,0.224,1.052c0.465,1.129,1.18,2.155,2.079,2.982c2.207,2.03,5.503,2.899,7.043,5.472
					c0.538,0.897,1.376,1.871,1.934,2.52c0.259,0.301,0.904-0.449,1.273-0.597c0.793-0.318,3.722-1.133,3.177-1.79
					c-1.413-1.704-1.445-1.803-2.244-2.747C300.103,204.958,299.46,203.45,299.309,201.897z"/>
				<path style="fill:#E61C5D;" d="M344.562,241.756c-6.331-1.411-12.66-3.961-18.595-1.345c-1.4,0.617-2.763,1.472-3.569,2.772
					c-0.806,1.3-0.914,3.122,0.073,4.291c0.612,0.724,1.53,1.101,2.413,1.446c10.794,4.218,21.905,7.627,33.207,10.19
					c3.985,0.904,8.895,1.406,11.464-1.772c1.488-1.841,2.046-3.308,0.489-5.746c-1.796-2.812-4.651-3.779-7.023-4.598
					C356.849,244.862,350.936,243.177,344.562,241.756z"/>
				<path style="fill:#E61C5D;" d="M295.854,208.258l26.619,39.222c0,0,3.1,4.041,11.291-0.935c8.191-4.975-4.056-9.045-4.056-9.045
					l-27.975-31.973L295.854,208.258z"/>
			</g>
			<path style="fill:#E61C5D;" d="M404.845,322.018c0.069,1.485-1.2,2.806-3.057,3.178c-1.235,0.242-2.711,0.768-4.412,1.304
				c-4.102,1.304-9.49,2.711-15.784,0.483c-9.326-3.307-14.316-0.363-22.01-0.535c-7.702-0.181-5.069-7.59-5.069-7.59
				s0.017-0.164,0.043-0.484c0.311-3.247,2.021-21.604,2.219-25.3c0.224-4.067,2.495-37.622,2.72-41.335
				c0.225-3.704,5.656-3.886,5.656-3.886c11.311-1.416,23.521-1.235,29.859,0c6.338,1.243,6.338,4.775,6.338,4.775L402.479,274
				l0.017,0.319l0.794,16.121L404.845,322.018z"/>
			<g>
				<g>
					<path style="fill:#E61C5D;" d="M401.85,273.747c3.599,4.67,6.535,10.135,12.202,11.763c1.336,0.384,2.786,0.58,4.106,0.141
						c1.32-0.439,2.456-1.648,2.447-3.039c-0.005-0.862-0.427-1.66-0.843-2.415c-5.082-9.228-10.856-18.076-17.257-26.444
						c-2.257-2.951-5.393-6.16-9.037-5.436c-2.111,0.419-3.354,1.119-3.686,3.728c-0.383,3.009,1.048,5.346,2.227,7.299
						C395.077,264.427,398.226,269.045,401.85,273.747z"/>
					<path style="fill:#E61C5D;" d="M413.767,325.337l6.807-42.909c0,0,0.37-4.615-8.188-6.248
						c-8.558-1.633-2.428,5.654-2.428,5.654l-0.422,41.822L413.767,325.337z"/>
				</g>
			</g>
		</g>
		<polygon style="fill:#F3A879;" points="386.211,249.537 378.714,256.748 376.068,253.953 374.804,231.965 386.103,232.26 		"/>
		<path style="fill:#E59467;" d="M375.449,243.181c0.222-0.037,9.846-1.6,10.654-5.02c0.226-0.957-0.222-6.71-0.222-6.71
			l-10.891,3.146L375.449,243.181z"/>
		<g>
			<path style="fill:#930077;" d="M377.835,325.888c-1.166-4.184-2.046-8.626-1.589-13.042c0.216-2.144,0.751-4.27,1.269-6.328
				c0.138-0.551,0.276-1.111,0.414-1.661c0.604-2.505,1.097-5.079,1.468-7.636c0.63-4.365,0.829-8.23,0.604-11.82
				c-0.19-3.151-0.725-6.379-1.243-9.496c-1.062-6.439-2.028-13.004-0.163-19.315l0.118,0.159c-1.831,6.216-0.585,12.7,0.477,19.087
				c0.518,3.125,1.053,6.362,1.243,9.539c0.225,3.624,0.026,7.516-0.613,11.906c-0.371,2.574-0.863,5.157-1.468,7.679
				c-0.138,0.551-0.276,1.111-0.414,1.661c-0.518,2.04-1.045,4.15-1.261,6.267c-0.458,4.416,0.449,8.893,1.632,13.103
				L377.835,325.888z"/>
		</g>
		<polygon style="fill:#B6D5D4;" points="381.9,249.895 378.714,256.748 386.168,251.999 		"/>
		<polygon style="fill:#FFFFFF;" points="389.586,246.37 386.166,244.766 381.9,249.895 386.379,256.748 		"/>
		<polygon style="fill:#B6D5D4;" points="378.714,256.748 376.068,248.632 373.423,251.157 		"/>
		<polygon style="fill:#FFFFFF;" points="375.587,245.145 376.068,248.632 371.619,253.321 373.423,247.069 		"/>
		<path style="fill:#FFFFFF;" d="M378.714,260.75c0,0.773-0.513,1.4-1.145,1.4c-0.633,0-1.145-0.627-1.145-1.4s0.513-1.4,1.145-1.4
			C378.201,259.351,378.714,259.977,378.714,260.75z"/>
		<path style="fill:#FFFFFF;" d="M380.336,275.836c0,0.773-0.513,1.4-1.145,1.4c-0.633,0-1.145-0.627-1.145-1.4s0.513-1.4,1.145-1.4
			C379.823,274.436,380.336,275.063,380.336,275.836z"/>
		<path style="fill:#FFFFFF;" d="M380.76,291.977c0,0.773-0.513,1.4-1.145,1.4c-0.633,0-1.145-0.627-1.145-1.4s0.513-1.4,1.145-1.4
			C380.248,290.577,380.76,291.204,380.76,291.977z"/>
		<path style="fill:#FFFFFF;" d="M378.541,306.525c0,0.773-0.513,1.4-1.145,1.4c-0.633,0-1.145-0.627-1.145-1.4s0.513-1.4,1.145-1.4
			C378.029,305.125,378.541,305.752,378.541,306.525z"/>
		<path style="fill:#FFFFFF;" d="M377.568,321.257c0,0.773-0.513,1.4-1.145,1.4c-0.632,0-1.145-0.627-1.145-1.4s0.513-1.4,1.145-1.4
			C377.055,319.857,377.568,320.483,377.568,321.257z"/>
		<path style="fill:#D6185D;" d="M404.845,322.018c0.069,1.485-1.2,2.806-3.057,3.178c-1.235,0.242-2.711,0.768-4.412,1.304
			c-0.121-0.509-0.181-1.036-0.207-1.554c-0.173-3.713,0.976-7.34,1.52-11.018c1.667-11.104-2.124-22.545-0.104-33.598
			c0.25-1.382,1.174-5.993,2.962-6.295c0.328-0.06,0.648,0.06,0.95,0.285l0.794,16.121L404.845,322.018z"/>
		<g>
			<path style="fill:#F3A879;" d="M366.745,212.594c0,0-4.961,16.459-0.663,22.533s14.34,8.068,23.045-1.003
				c0,0,6.311-8.01,5.388-15.382c-1.064-8.497-3.331-14.602-16.064-13.978C368.53,205.25,366.745,212.594,366.745,212.594z"/>
			<path style="fill:#4F054C;" d="M397.549,220.59c-3.372,0.092-2.867,4.803-2.867,4.803s0.352,7.149-2.563,7.879
				c-0.574,0.153-1.28,0.044-2.138-0.415c-6.251-3.356-2.879-13.477-2.217-16.618c0.136-0.645-0.17-1.302-0.751-1.619
				c-2.176-1.198-7.833-3.707-15.438-2.716c-9.835,1.283-10.859,0.089-10.856-6.719c-0.001-4.79,1.783-6.216,3.327-7.268
				c1.589-1.08,3.575-1.383,5.45-0.964c10.102,2.237,12.703,1.55,15.14,0.976c1.815-0.425,3.539-0.783,8.229,0.19
				c11.32,2.354,4.997,14.371,4.997,14.371C400.475,213.939,400.927,220.499,397.549,220.59z"/>
			<path style="fill:#F3A879;" d="M389.944,221.192c-0.143,1.655-1.601,2.88-3.256,2.737c-1.655-0.143-2.88-1.601-2.737-3.256
				s1.601-2.88,3.256-2.737C388.862,218.08,390.088,219.538,389.944,221.192z"/>
			<path style="fill:#4F054C;" d="M368.947,218.958c-0.083,0.957-0.676,1.688-1.325,1.631c-0.649-0.056-1.108-0.878-1.025-1.835
				c0.083-0.957,0.676-1.688,1.325-1.631C368.571,217.179,369.03,218.001,368.947,218.958z"/>
			<path style="fill:#4F054C;" d="M376.056,219.574c-0.083,0.957-0.676,1.688-1.325,1.631c-0.649-0.056-1.108-0.878-1.025-1.835
				c0.083-0.957,0.676-1.688,1.325-1.631C375.68,217.795,376.139,218.617,376.056,219.574z"/>
			<g>
				<path style="fill:#EA7A68;" d="M370.821,228.118c-0.011-0.001-0.023-0.003-0.034-0.005c-0.95-0.194-1.846-0.683-2.523-1.379
					c-0.23-0.236-0.539-0.605-0.585-1.081c-0.044-0.461,0.169-0.87,0.372-1.217c0.647-1.106,1.426-2.134,2.315-3.056
					c0.112-0.116,0.297-0.119,0.414-0.008c0.116,0.112,0.12,0.297,0.008,0.413c-0.857,0.889-1.608,1.881-2.231,2.946
					c-0.157,0.268-0.322,0.579-0.295,0.866c0.021,0.222,0.156,0.454,0.423,0.729c0.595,0.612,1.384,1.043,2.221,1.214
					c0.158,0.032,0.26,0.186,0.228,0.345C371.102,228.032,370.966,228.13,370.821,228.118z"/>
			</g>
			<path style="fill:#FFFFFF;" d="M367.972,231.29c0,0,2.95,1.065,5.01-0.486c2.06-1.551,2.031,4.181-1.729,3.997
				C367.492,234.617,365.988,230.591,367.972,231.29z"/>
			<path style="fill:#4F054C;" d="M365.375,215.648c-0.137,0.205-0.143,0.514,0.043,0.677c0.155,0.136,0.384,0.132,0.59,0.127
				c1.09-0.029,2.184,0.094,3.24,0.365c0.219,0.056,0.441,0.119,0.667,0.1c0.225-0.019,0.457-0.14,0.538-0.351
				c0.077-0.201-0.003-0.435-0.147-0.594c-0.145-0.159-0.344-0.256-0.541-0.34c-0.742-0.314-1.566-0.495-2.368-0.576
				C366.786,214.994,365.747,215.09,365.375,215.648z"/>
			<path style="fill:#4F054C;" d="M372.23,216.094c-0.137,0.205-0.143,0.514,0.043,0.677c0.156,0.136,0.384,0.132,0.59,0.127
				c1.09-0.029,2.184,0.094,3.24,0.365c0.219,0.056,0.441,0.119,0.666,0.1c0.225-0.019,0.457-0.14,0.538-0.351
				c0.077-0.201-0.003-0.435-0.147-0.594s-0.344-0.256-0.541-0.34c-0.742-0.314-1.566-0.495-2.368-0.576
				C373.641,215.44,372.602,215.536,372.23,216.094z"/>
			<path style="opacity:0.5;fill:#3F033F;" d="M397.549,220.59c-3.372,0.092-2.867,4.803-2.867,4.803s0.352,7.149-2.563,7.879
				c-0.466-1.343-0.485-2.84-0.462-4.28c0.093-5.45,0.614-10.899,1.549-16.27c0.636-3.645,1.323-7.869-1.122-10.649
				c-1.589-1.809-4.081-2.452-6.274-3.454c-0.292-0.138-0.71-0.377-1.174-0.689c1.815-0.425,3.539-0.783,8.229,0.19
				c11.32,2.354,4.997,14.371,4.997,14.371C400.475,213.939,400.927,220.499,397.549,220.59z"/>
		</g>
	</g>
</g>
<g id="DESIGNED_BY_FREEPIK">
	<g>
		<g id="XMLID_29_">
			<g id="XMLID_48_">
				<path id="XMLID_56_" style="fill:#A5B7C6;" d="M260.104,472.542c-0.432,0.443-0.803,0.931-1.108,1.453l-0.465-0.241
					c-0.067-0.298-0.349-0.503-0.659-0.466c-0.331,0.039-0.568,0.339-0.529,0.67c0.039,0.331,0.339,0.568,0.67,0.529
					c0.065-0.008,0.127-0.026,0.184-0.052l0.451,0.234c-0.251,0.554-0.433,1.139-0.539,1.744l0.747,0.132
					c0.23-1.306,0.85-2.507,1.792-3.472L260.104,472.542z"/>
				<path id="XMLID_55_" style="fill:#A5B7C6;" d="M265.592,470.24c-0.171,0-0.341,0.006-0.51,0.017l-0.074-0.626
					c0.188-0.149,0.296-0.389,0.266-0.645c-0.046-0.393-0.402-0.674-0.795-0.628c-0.393,0.046-0.674,0.402-0.628,0.795
					c0.03,0.254,0.189,0.461,0.405,0.564l0.073,0.624c-0.714,0.116-1.403,0.332-2.06,0.646l0.327,0.684
					c0.934-0.447,1.942-0.673,2.995-0.673c0.496,0,0.993,0.053,1.475,0.158l0.161-0.741
					C266.692,470.298,266.142,470.24,265.592,470.24z"/>
				<path id="XMLID_54_" style="fill:#A5B7C6;" d="M272.194,472.787c0.331-0.04,0.566-0.341,0.526-0.672
					c-0.04-0.331-0.341-0.566-0.672-0.526c-0.309,0.038-0.535,0.304-0.53,0.609l-0.416,0.363c-0.418-0.43-0.89-0.813-1.408-1.139
					l-0.404,0.641c1.134,0.715,2.021,1.726,2.563,2.925l0.69-0.313c-0.251-0.554-0.567-1.072-0.942-1.545l0.402-0.351
					C272.065,472.792,272.129,472.795,272.194,472.787z"/>
				<path id="XMLID_53_" style="fill:#A5B7C6;" d="M265.044,480.448c-0.386,0.023-0.775,0.035-1.157,0.035
					c-0.88,0-1.733-0.061-2.478-0.179c-0.39-0.062-0.846-0.155-1.27-0.292c1.046,1.861,3.069,3.125,5.388,3.125
					c2.855,0,5.262-1.916,5.95-4.504c-0.682,0.449-1.505,0.825-2.459,1.123C267.839,480.123,266.463,480.363,265.044,480.448z"/>
				<path id="XMLID_49_" style="fill:#A5B7C6;" d="M265.592,471.756c-3.352,0-6.08,2.666-6.08,5.944
					c0,0.425,0.046,0.849,0.137,1.261c0.673,0.483,2.706,0.89,5.348,0.731c2.879-0.173,5.297-0.957,6.672-2.158
					c-0.005-0.195-0.021-0.39-0.045-0.582C271.244,473.989,268.65,471.756,265.592,471.756z M263.432,478.271
					c-1.02,0-1.85-0.83-1.85-1.85c0-1.02,0.83-1.85,1.85-1.85c1.02,0,1.85,0.83,1.85,1.85
					C265.282,477.441,264.452,478.271,263.432,478.271z M268.17,477.362c-0.75,0-1.36-0.61-1.36-1.36s0.61-1.361,1.36-1.361
					c0.75,0,1.361,0.61,1.361,1.361S268.92,477.362,268.17,477.362z"/>
			</g>
			<path id="XMLID_46_" style="fill:#A5B7C6;" d="M281.595,473.623c-0.295-0.116-0.805-0.309-1.382-0.237
				c-0.551,0.068-0.844,0.34-0.844,1.007v0.866h2.228v1.717h-2.228v5.455h-1.932v-5.455h-1.34v-1.717h1.34v-0.888
				c0-1.68,0.896-2.783,2.568-2.783c0.643,0,1.157,0.122,1.59,0.308L281.595,473.623z"/>
			<path id="XMLID_44_" style="fill:#A5B7C6;" d="M286.298,476.955c-0.177-0.03-0.358-0.046-0.526-0.046
				c-0.896,0-1.51,0.548-1.51,1.613v3.908h-1.932v-7.172h1.873v0.785c0.451-0.673,1.14-0.977,2.021-0.977
				c0.414,0,0.848,0.128,1.094,0.337L286.298,476.955z"/>
			<path id="XMLID_41_" style="fill:#A5B7C6;" d="M293.965,478.833c0,0.222-0.015,0.489-0.037,0.651h-5.085
				c0.207,1.036,0.933,1.488,1.843,1.488c0.622,0,1.295-0.252,1.813-0.688l1.133,1.243c-0.814,0.748-1.85,1.088-3.057,1.088
				c-2.198,0-3.723-1.495-3.723-3.753c0-2.258,1.48-3.797,3.626-3.797C292.544,475.066,293.958,476.598,293.965,478.833z
				 M288.851,478.167h3.175c-0.177-0.918-0.733-1.436-1.562-1.436C289.554,476.731,289.021,477.279,288.851,478.167z"/>
			<path id="XMLID_38_" style="fill:#A5B7C6;" d="M301.618,478.833c0,0.222-0.015,0.489-0.037,0.651h-5.085
				c0.207,1.036,0.933,1.488,1.843,1.488c0.622,0,1.295-0.252,1.813-0.688l1.132,1.243c-0.814,0.748-1.85,1.088-3.057,1.088
				c-2.198,0-3.723-1.495-3.723-3.753c0-2.258,1.48-3.797,3.627-3.797C300.197,475.066,301.611,476.598,301.618,478.833z
				 M296.504,478.167h3.175c-0.178-0.918-0.733-1.436-1.562-1.436C297.207,476.731,296.674,477.279,296.504,478.167z"/>
			<path id="XMLID_35_" style="fill:#A5B7C6;" d="M309.964,478.841c0,2.154-1.495,3.775-3.471,3.775
				c-0.962,0-1.643-0.378-2.109-0.933v3.708h-1.924v-10.133h1.887v0.792c0.466-0.585,1.155-0.984,2.139-0.984
				C308.469,475.066,309.964,476.687,309.964,478.841z M304.287,478.841c0,1.132,0.748,1.976,1.843,1.976
				c1.14,0,1.85-0.881,1.85-1.976c0-1.095-0.71-1.976-1.85-1.976C305.035,476.864,304.287,477.708,304.287,478.841z"/>
			<path id="XMLID_32_" style="fill:#A5B7C6;" d="M313.068,472.912c0,0.696-0.54,1.229-1.236,1.229
				c-0.696,0-1.229-0.533-1.229-1.229c0-0.696,0.533-1.243,1.229-1.243C312.527,471.669,313.068,472.216,313.068,472.912z
				 M312.809,482.43h-1.932v-7.172h1.932V482.43z"/>
			<path id="XMLID_30_" style="fill:#A5B7C6;" d="M316.032,477.812l2.701-2.554h2.368l-3.479,3.375l3.501,3.797h-2.376l-2.716-2.901
				v2.901H314.1v-10.658h1.932V477.812z"/>
		</g>
		<g>
			<path style="fill:#A5B7C6;" d="M184.412,482.365v-1.055c-0.527,0.718-1.391,1.23-2.387,1.23c-1.846,0-3.149-1.406-3.149-3.706
				c0-2.256,1.289-3.721,3.149-3.721c0.952,0,1.816,0.469,2.387,1.245v-3.765h1.099v9.77H184.412z M184.412,480.446v-3.208
				c-0.395-0.615-1.245-1.143-2.124-1.143c-1.421,0-2.27,1.172-2.27,2.739c0,1.567,0.85,2.724,2.27,2.724
				C183.168,481.56,184.017,481.062,184.412,480.446z"/>
			<path style="fill:#A5B7C6;" d="M186.932,478.821c0-2.051,1.465-3.706,3.486-3.706c2.139,0,3.398,1.67,3.398,3.794v0.279h-5.727
				c0.088,1.333,1.025,2.446,2.549,2.446c0.805,0,1.626-0.322,2.182-0.893l0.527,0.718c-0.703,0.703-1.655,1.084-2.812,1.084
				C188.44,482.541,186.932,481.032,186.932,478.821z M190.403,476.023c-1.509,0-2.256,1.274-2.314,2.358h4.643
				C192.718,477.326,192.015,476.023,190.403,476.023z"/>
			<path style="fill:#A5B7C6;" d="M194.607,481.428l0.571-0.791c0.469,0.542,1.362,1.011,2.329,1.011c1.084,0,1.67-0.513,1.67-1.216
				c0-1.714-4.38-0.659-4.38-3.281c0-1.098,0.952-2.036,2.636-2.036c1.201,0,2.051,0.454,2.622,1.026l-0.513,0.762
				c-0.424-0.513-1.201-0.894-2.109-0.894c-0.967,0-1.567,0.483-1.567,1.113c0,1.552,4.38,0.527,4.38,3.281
				c0,1.187-0.952,2.138-2.783,2.138C196.306,482.541,195.325,482.19,194.607,481.428z"/>
			<path style="fill:#A5B7C6;" d="M201.477,473.547c0-0.41,0.337-0.747,0.732-0.747c0.41,0,0.747,0.337,0.747,0.747
				c0,0.41-0.337,0.732-0.747,0.732C201.814,474.28,201.477,473.957,201.477,473.547z M201.667,482.365v-7.075h1.099v7.075H201.667z
				"/>
			<path style="fill:#A5B7C6;" d="M204.582,484.182l0.556-0.82c0.586,0.703,1.289,0.967,2.3,0.967c1.172,0,2.27-0.571,2.27-2.124
				v-1.011c-0.513,0.718-1.377,1.26-2.373,1.26c-1.845,0-3.149-1.377-3.149-3.662c0-2.27,1.289-3.677,3.149-3.677
				c0.952,0,1.802,0.469,2.373,1.245v-1.069h1.098v6.87c0,2.344-1.641,3.076-3.369,3.076
				C206.237,485.236,205.417,485.002,204.582,484.182z M209.709,480.329v-3.091c-0.381-0.615-1.23-1.143-2.109-1.143
				c-1.421,0-2.27,1.128-2.27,2.695c0,1.553,0.849,2.695,2.27,2.695C208.478,481.486,209.328,480.945,209.709,480.329z"/>
			<path style="fill:#A5B7C6;" d="M217.413,482.365v-4.629c0-1.245-0.63-1.641-1.582-1.641c-0.865,0-1.685,0.527-2.095,1.099v5.17
				h-1.099v-7.075h1.099v1.025c0.498-0.586,1.464-1.201,2.519-1.201c1.48,0,2.256,0.747,2.256,2.285v4.966H217.413z"/>
			<path style="fill:#A5B7C6;" d="M219.932,478.821c0-2.051,1.465-3.706,3.486-3.706c2.139,0,3.398,1.67,3.398,3.794v0.279h-5.727
				c0.088,1.333,1.025,2.446,2.549,2.446c0.806,0,1.626-0.322,2.183-0.893l0.527,0.718c-0.703,0.703-1.655,1.084-2.812,1.084
				C221.441,482.541,219.932,481.032,219.932,478.821z M223.404,476.023c-1.509,0-2.256,1.274-2.314,2.358h4.643
				C225.718,477.326,225.015,476.023,223.404,476.023z"/>
			<path style="fill:#A5B7C6;" d="M233.35,482.365v-1.055c-0.527,0.718-1.392,1.23-2.388,1.23c-1.846,0-3.149-1.406-3.149-3.706
				c0-2.256,1.289-3.721,3.149-3.721c0.952,0,1.817,0.469,2.388,1.245v-3.765h1.098v9.77H233.35z M233.35,480.446v-3.208
				c-0.396-0.615-1.245-1.143-2.124-1.143c-1.421,0-2.27,1.172-2.27,2.739c0,1.567,0.849,2.724,2.27,2.724
				C232.105,481.56,232.954,481.062,233.35,480.446z"/>
			<path style="fill:#A5B7C6;" d="M239.692,482.365v-9.77h1.098v3.765c0.572-0.776,1.421-1.245,2.388-1.245
				c1.845,0,3.149,1.465,3.149,3.721c0,2.299-1.304,3.706-3.149,3.706c-0.996,0-1.86-0.513-2.388-1.23v1.055H239.692z M242.9,481.56
				c1.436,0,2.285-1.157,2.285-2.724c0-1.568-0.85-2.739-2.285-2.739c-0.864,0-1.728,0.527-2.109,1.143v3.208
				C241.171,481.062,242.036,481.56,242.9,481.56z"/>
			<path style="fill:#A5B7C6;" d="M247.528,484.138c0.161,0.073,0.425,0.117,0.601,0.117c0.483,0,0.805-0.161,1.055-0.747
				l0.469-1.069l-2.959-7.148h1.187l2.358,5.801l2.344-5.801h1.201l-3.545,8.51c-0.425,1.025-1.143,1.421-2.08,1.435
				c-0.234,0-0.601-0.044-0.805-0.103L247.528,484.138z"/>
		</g>
	</g>
</g>
</svg>
